<svg width="20" height="20" viewBox="0 0 20 20" fill="none" xmlns="http://www.w3.org/2000/svg">
<path d="M19.1667 2.50002C18.3687 3.06292 17.4851 3.49344 16.55 3.77502C16.0482 3.19794 15.3812 2.78893 14.6392 2.60329C13.8973 2.41765 13.1163 2.46435 12.4018 2.73706C11.6873 3.00978 11.0737 3.49535 10.6442 4.12812C10.2146 4.76088 9.98979 5.5103 10 6.27502V7.10835C8.53557 7.14632 7.08444 6.82153 5.77588 6.16289C4.46733 5.50425 3.34197 4.53221 2.50004 3.33335C2.50004 3.33335 -0.833293 10.8334 6.66671 14.1667C4.95048 15.3317 2.906 15.9158 0.833374 15.8334C8.33337 20 17.5 15.8334 17.5 6.25002C17.4993 6.0179 17.477 5.78635 17.4334 5.55835C18.2839 4.7196 18.8841 3.66061 19.1667 2.50002V2.50002Z" stroke="#F1EDED" stroke-linecap="round" stroke-linejoin="round"/>
</svg>
